<?xml version="1.0" encoding="UTF-8" standalone="no"?>
<!-- Created with Inkscape (http://www.inkscape.org/) -->

<svg
   width="255.99998"
   height="256.00003"
   viewBox="0 0 67.73333 67.733341"
   version="1.1"
   id="svg1"
   xml:space="preserve"
   xmlns:xlink="http://www.w3.org/1999/xlink"
   xmlns="http://www.w3.org/2000/svg"
   xmlns:svg="http://www.w3.org/2000/svg"><defs
     id="defs1"><linearGradient
       id="linearGradient78"><stop
         style="stop-color:#000016;stop-opacity:1;"
         offset="0"
         id="stop78" /><stop
         style="stop-color:#161624;stop-opacity:1;"
         offset="1"
         id="stop79" /></linearGradient><linearGradient
       id="linearGradient14"><stop
         style="stop-color:#b9403a;stop-opacity:1;"
         offset="0"
         id="stop14" /><stop
         style="stop-color:#a0b921;stop-opacity:1;"
         offset="1"
         id="stop15" /></linearGradient><linearGradient
       id="linearGradient12"><stop
         style="stop-color:#bd3b36;stop-opacity:1;"
         offset="0"
         id="stop12" /><stop
         style="stop-color:#9bb019;stop-opacity:1;"
         offset="1"
         id="stop13" /></linearGradient><linearGradient
       xlink:href="#linearGradient12"
       id="linearGradient59"
       gradientUnits="userSpaceOnUse"
       gradientTransform="translate(-4e-6,1.38e-4)"
       x1="76.988075"
       y1="86.715294"
       x2="93.927986"
       y2="69.794899" /><linearGradient
       xlink:href="#linearGradient14"
       id="linearGradient60"
       gradientUnits="userSpaceOnUse"
       gradientTransform="translate(14.307754,2.08e-4)"
       x1="67.843628"
       y1="110.29156"
       x2="67.843628"
       y2="65.129517" /><radialGradient
       xlink:href="#linearGradient78"
       id="radialGradient79-7"
       cx="334.79999"
       cy="28.168379"
       fx="334.79999"
       fy="28.168379"
       r="67.73333"
       gradientTransform="matrix(0.50000007,0,0,0.50000005,164.19998,19.782478)"
       gradientUnits="userSpaceOnUse" /></defs><g
     id="g45"
     transform="translate(-297.73333)"><rect
       style="display:none;fill:url(#radialGradient79-7);fill-opacity:1;stroke:none;stroke-width:2.64583;stroke-linecap:round;stroke-linejoin:round;stroke-dasharray:none;stroke-opacity:1;paint-order:fill markers stroke"
       id="rect77-6"
       width="67.733353"
       height="67.733337"
       x="297.73331"
       y="0" /><g
       id="g59"
       transform="matrix(0.88668622,0,0,0.88668622,107.45821,3.3117922)"><g
         id="g55"
         transform="matrix(1.684487,0,0,1.684487,39.248142,-174.51498)"><path
           id="path52"
           style="fill:#ffffff;fill-opacity:1;stroke:#ffffff;stroke-width:1.77143;stroke-linecap:round;stroke-linejoin:round;stroke-dasharray:none;stroke-opacity:1;paint-order:fill markers stroke"
           d="m 115.93256,130.23485 c -0.70801,0.0174 -1.33507,0.21739 -1.88914,0.71356 l 3.06502,1.00532 -3.37671,-0.68504 c -0.27357,0.31942 -0.52782,0.72479 -0.76388,1.23233 -0.18825,0.40473 -0.28678,0.76233 -0.31843,1.07802 v 3.1e-4 l 2.9374,1.05961 -2.92605,-0.52858 c 0.17103,1.10026 1.06366,1.69108 8.71496,3.78565 10.74675,2.90996 13.78696,3.51446 14.29772,3.6255 1.43076,0.31104 3.60793,0.93295 4.91428,-1.80416 0.0912,-0.19114 0.15985,-0.37381 0.2083,-0.54821 l -3.15705,-1.27651 3.23651,0.87187 c 0.11993,-1.07393 -1.20349,-2.22906 -1.20349,-2.22906 l -1.48174,-0.48133 -19.81022,-5.41986 c -0.90715,-0.24306 -1.72011,-0.41731 -2.44748,-0.39942 z m 1.16361,2.84782 2.45453,0.31353 1.63667,0.67921 -2.26341,-0.18315 z m 14.47197,6.35737 2.33581,0.46017 3.02637,0.92003 -3.30953,-0.56631 z" /><path
           id="path53"
           style="fill:#936f52;fill-opacity:1;stroke:none;stroke-width:1;stroke-linecap:round;stroke-linejoin:round;paint-order:fill markers stroke"
           d="m 115.93256,130.23485 c -0.70801,0.0174 -1.33507,0.21739 -1.88914,0.71356 l 3.06502,1.00532 -3.37671,-0.68504 c -0.27357,0.31942 -0.52782,0.72479 -0.76388,1.23233 -0.18825,0.40473 -0.28678,0.76233 -0.31843,1.07802 v 3.1e-4 l 2.9374,1.05961 -2.92605,-0.52858 c 0.17103,1.10026 1.06366,1.69108 8.71496,3.78565 10.74675,2.90996 13.78696,3.51446 14.29772,3.6255 1.43076,0.31104 3.60793,0.93295 4.91428,-1.80416 0.0912,-0.19114 0.15985,-0.37381 0.2083,-0.54821 l -3.15705,-1.27651 3.23651,0.87187 c 0.11993,-1.07393 -1.20349,-2.22906 -1.20349,-2.22906 l -1.48174,-0.48133 -19.81022,-5.41986 c -0.90715,-0.24306 -1.72011,-0.41731 -2.44748,-0.39942 z m 1.16361,2.84782 2.45453,0.31353 1.63667,0.67921 -2.26341,-0.18315 z m 14.47197,6.35737 2.33581,0.46017 3.02637,0.92003 -3.30953,-0.56631 z" /><path
           id="path54"
           style="fill:#ffffff;fill-opacity:1;stroke:#ffffff;stroke-width:1.77143;stroke-linecap:round;stroke-linejoin:round;stroke-dasharray:none;stroke-opacity:1;paint-order:fill markers stroke"
           d="m 133.87066,127.97968 c -0.65183,-0.0263 -1.18322,0.72657 -1.18322,0.72657 -0.86025,0.99367 -2.23379,3.37475 -2.23379,3.37475 0,0 -10.11163,2.80429 -14.74818,4.09007 -1.96822,0.52739 -1.99074,2.2082 -0.90212,4.29214 0.0997,0.1908 0.21238,0.35696 0.33491,0.50163 l 0.28875,0.28816 c 1.24221,1.04705 3.10891,0.4543 3.10891,0.4543 0,0 19.22199,-5.66071 20.83937,-6.12726 1.90607,-0.78926 0.90917,-3.12215 0.28199,-4.53972 -0.90345,-1.73864 -2.91043,-0.96563 -2.91043,-0.96563 l -2.45702,0.88654 c 0,0 0.29541,-0.60661 0.66865,-1.16647 0.37324,-0.55986 0.0933,-1.27529 -0.7154,-1.71074 -0.12636,-0.068 -0.25126,-0.0995 -0.37197,-0.10438 z"
           clip-path="none" /><path
           id="path55"
           style="fill:#936f52;fill-opacity:1;stroke:none;stroke-width:1;stroke-linecap:round;stroke-linejoin:round;paint-order:fill markers stroke"
           d="m 133.87066,127.97968 c -0.65183,-0.0263 -1.18322,0.72657 -1.18322,0.72657 -0.86025,0.99367 -2.23379,3.37475 -2.23379,3.37475 0,0 -10.11163,2.80429 -14.74818,4.09007 -1.96822,0.52739 -1.99074,2.2082 -0.90212,4.29214 0.0997,0.1908 0.21238,0.35696 0.33491,0.50163 l 4.41299,-1.2241 -4.12424,1.51226 c 1.24221,1.04705 3.10891,0.4543 3.10891,0.4543 0,0 19.22199,-5.66071 20.83937,-6.12726 1.46873,-0.42366 1.27004,-2.15552 0.56898,-3.89106 l -3.82697,0.40137 3.53998,-1.05003 c -0.90345,-1.73864 -2.91043,-0.96563 -2.91043,-0.96563 l -2.45702,0.88654 c 0,0 0.29541,-0.60661 0.66865,-1.16647 0.37324,-0.55986 0.0933,-1.27529 -0.7154,-1.71074 -0.12636,-0.068 -0.25126,-0.0995 -0.37197,-0.10438 z m -7.2649,6.46334 -3.75434,1.37641 -4.50414,1.26674 3.5782,-1.69221 z"
           clip-path="none" /></g><g
         id="g58"
         transform="matrix(1.1438395,0,0,0.92305813,160.92658,-41.46653)"
         style="display:inline"><path
           style="display:inline;mix-blend-mode:normal;fill:none;fill-opacity:0;stroke:#ffffff;stroke-width:1.77143;stroke-linecap:round;stroke-linejoin:round;stroke-dasharray:none;stroke-opacity:1;paint-order:fill markers stroke"
           d="m 128.01906,138.00572 c 0,0 2.78792,-4.02238 -4.73102,-8.62424 -7.51894,-4.60187 -9.29307,-10.05594 -0.59138,-15.64635 8.70169,-5.59042 5.02671,-8.93104 5.02671,-8.93104 0,0 7.09652,5.11319 0.7181,10.29455 -6.37843,5.18136 -6.88532,6.44262 -3.92844,9.98776 0,0 -0.42241,-2.62477 3.97068,-5.41998 4.39308,-2.79521 5.28015,-4.26099 4.22412,-6.23809 0,0 5.40688,3.98829 -0.38017,8.72651 -5.78705,4.73822 -4.8155,5.55633 -3.16809,8.48789 1.64741,2.93156 1.52068,4.97684 -1.14051,7.36299 z"
           id="path56"
           clip-path="none"
           transform="matrix(1.4726603,0,0,1.8248981,-106.3772,-141.5546)" /><path
           style="mix-blend-mode:normal;fill:url(#linearGradient59);stroke:none;stroke-width:1;stroke-linecap:round;stroke-linejoin:round;paint-order:fill markers stroke"
           d="m 82.151382,110.29177 c 0,0 4.10566,-7.34042 -6.96718,-15.738358 -11.07284,-8.397938 -13.685531,-18.351052 -0.8709,-28.552997 12.81464,-10.201941 7.40263,-16.298223 7.40263,-16.298223 0,0 10.45077,9.331046 1.05752,18.786503 -9.39325,9.455459 -10.13973,11.757117 -5.78525,18.22664 0,0 -0.62207,-4.789935 5.84746,-9.890906 6.46952,-5.100971 7.77587,-7.775871 6.2207,-11.383875 0,0 7.96249,7.278215 -0.55987,15.924984 -8.52235,8.646768 -7.09159,10.139735 -4.66552,15.489534 2.42607,5.349798 2.23945,9.082218 -1.67959,13.436698 z"
           id="path57" /><path
           id="path58"
           style="fill:url(#linearGradient60);stroke-width:1;stroke-linecap:round;stroke-linejoin:round;paint-order:fill markers stroke"
           d="m 74.313454,66.000633 c -12.814362,10.201879 -10.202024,20.154893 0.870748,28.552779 11.07284,8.397938 6.967533,15.738568 6.967533,15.738568 3.91904,-4.35448 4.105554,-8.0871 1.679484,-13.436898 0,0 -11.096714,-11.385614 -0.995288,-20.030821 -6.469503,5.100964 -5.847705,9.891386 -5.847705,9.891386 0,0 -11.593975,-13.500275 -2.674772,-20.715014 z" /></g></g></g></svg>
