<?xml version="1.0" encoding="UTF-8" standalone="no"?>
<!-- Created with Inkscape (http://www.inkscape.org/) -->

<svg
   width="512"
   height="255.99998"
   viewBox="0 0 135.46667 67.733329"
   version="1.1"
   id="svg1"
   xml:space="preserve"
   xmlns:xlink="http://www.w3.org/1999/xlink"
   xmlns="http://www.w3.org/2000/svg"
   xmlns:svg="http://www.w3.org/2000/svg"><defs
     id="defs1"><linearGradient
       id="linearGradient104"><stop
         style="stop-color:#af7030;stop-opacity:1;"
         offset="0.29757786"
         id="stop103" /><stop
         style="stop-color:#ffffff;stop-opacity:1;"
         offset="1"
         id="stop104" /></linearGradient><linearGradient
       id="linearGradient78"><stop
         style="stop-color:#000016;stop-opacity:1;"
         offset="0"
         id="stop78" /><stop
         style="stop-color:#161624;stop-opacity:1;"
         offset="1"
         id="stop79" /></linearGradient><linearGradient
       id="linearGradient14"><stop
         style="stop-color:#b9403a;stop-opacity:1;"
         offset="0"
         id="stop14" /><stop
         style="stop-color:#a0b921;stop-opacity:1;"
         offset="1"
         id="stop15" /></linearGradient><linearGradient
       id="linearGradient12"><stop
         style="stop-color:#bd3b36;stop-opacity:1;"
         offset="0"
         id="stop12" /><stop
         style="stop-color:#9bb019;stop-opacity:1;"
         offset="1"
         id="stop13" /></linearGradient><linearGradient
       xlink:href="#linearGradient12"
       id="linearGradient98"
       gradientUnits="userSpaceOnUse"
       gradientTransform="translate(-4e-6,1.38e-4)"
       x1="76.988075"
       y1="86.715294"
       x2="93.927986"
       y2="69.794899" /><linearGradient
       xlink:href="#linearGradient14"
       id="linearGradient99"
       gradientUnits="userSpaceOnUse"
       gradientTransform="translate(14.307754,2.08e-4)"
       x1="67.843628"
       y1="110.29156"
       x2="67.843628"
       y2="65.129517" /><radialGradient
       xlink:href="#linearGradient104"
       id="radialGradient103"
       cx="185.87663"
       cy="30.880733"
       fx="185.87663"
       fy="30.880733"
       r="39.125301"
       gradientTransform="matrix(1.6804955,0,0,1.6823299,-126.48821,-21.070845)"
       gradientUnits="userSpaceOnUse" /><radialGradient
       xlink:href="#linearGradient78"
       id="radialGradient108"
       gradientUnits="userSpaceOnUse"
       gradientTransform="matrix(1,0,0,0.74218746,-145.46665,12.96045)"
       cx="368.66666"
       cy="28.168375"
       fx="368.66666"
       fy="28.168375"
       r="67.73333" /></defs><g
     id="layer2"
     transform="translate(-155.46666)"><rect
       style="display:none;fill:url(#radialGradient108);fill-opacity:1;stroke:none;stroke-width:2.64583;stroke-linecap:round;stroke-linejoin:round;stroke-dasharray:none;stroke-opacity:1;paint-order:fill markers stroke"
       id="rect107"
       width="135.46666"
       height="67.73333"
       x="155.46667"
       y="0" /><g
       id="g98"
       transform="translate(-5.2828722,2.9859306)"><g
         id="g97"
         transform="matrix(0.88668622,0,0,0.88668622,-34.808456,2.1736728)"><g
           id="g93"
           transform="matrix(1.684487,0,0,1.684487,39.248142,-174.51498)"
           style="display:none"><path
             id="path90"
             style="fill:#ffffff;fill-opacity:1;stroke:#ffffff;stroke-width:1.77143;stroke-linecap:round;stroke-linejoin:round;stroke-dasharray:none;stroke-opacity:1;paint-order:fill markers stroke"
             d="m 115.93256,130.23485 c -0.70801,0.0174 -1.33507,0.21739 -1.88914,0.71356 l 3.06502,1.00532 -3.37671,-0.68504 c -0.27357,0.31942 -0.52782,0.72479 -0.76388,1.23233 -0.18825,0.40473 -0.28678,0.76233 -0.31843,1.07802 v 3.1e-4 l 2.9374,1.05961 -2.92605,-0.52858 c 0.17103,1.10026 1.06366,1.69108 8.71496,3.78565 10.74675,2.90996 13.78696,3.51446 14.29772,3.6255 1.43076,0.31104 3.60793,0.93295 4.91428,-1.80416 0.0912,-0.19114 0.15985,-0.37381 0.2083,-0.54821 l -3.15705,-1.27651 3.23651,0.87187 c 0.11993,-1.07393 -1.20349,-2.22906 -1.20349,-2.22906 l -1.48174,-0.48133 -19.81022,-5.41986 c -0.90715,-0.24306 -1.72011,-0.41731 -2.44748,-0.39942 z m 1.16361,2.84782 2.45453,0.31353 1.63667,0.67921 -2.26341,-0.18315 z m 14.47197,6.35737 2.33581,0.46017 3.02637,0.92003 -3.30953,-0.56631 z" /><path
             id="path91"
             style="fill:#936f52;fill-opacity:1;stroke:none;stroke-width:1;stroke-linecap:round;stroke-linejoin:round;paint-order:fill markers stroke"
             d="m 115.93256,130.23485 c -0.70801,0.0174 -1.33507,0.21739 -1.88914,0.71356 l 3.06502,1.00532 -3.37671,-0.68504 c -0.27357,0.31942 -0.52782,0.72479 -0.76388,1.23233 -0.18825,0.40473 -0.28678,0.76233 -0.31843,1.07802 v 3.1e-4 l 2.9374,1.05961 -2.92605,-0.52858 c 0.17103,1.10026 1.06366,1.69108 8.71496,3.78565 10.74675,2.90996 13.78696,3.51446 14.29772,3.6255 1.43076,0.31104 3.60793,0.93295 4.91428,-1.80416 0.0912,-0.19114 0.15985,-0.37381 0.2083,-0.54821 l -3.15705,-1.27651 3.23651,0.87187 c 0.11993,-1.07393 -1.20349,-2.22906 -1.20349,-2.22906 l -1.48174,-0.48133 -19.81022,-5.41986 c -0.90715,-0.24306 -1.72011,-0.41731 -2.44748,-0.39942 z m 1.16361,2.84782 2.45453,0.31353 1.63667,0.67921 -2.26341,-0.18315 z m 14.47197,6.35737 2.33581,0.46017 3.02637,0.92003 -3.30953,-0.56631 z" /><path
             id="path92"
             style="fill:#ffffff;fill-opacity:1;stroke:#ffffff;stroke-width:1.77143;stroke-linecap:round;stroke-linejoin:round;stroke-dasharray:none;stroke-opacity:1;paint-order:fill markers stroke"
             d="m 133.87066,127.97968 c -0.65183,-0.0263 -1.18322,0.72657 -1.18322,0.72657 -0.86025,0.99367 -2.23379,3.37475 -2.23379,3.37475 0,0 -10.11163,2.80429 -14.74818,4.09007 -1.96822,0.52739 -1.99074,2.2082 -0.90212,4.29214 0.0997,0.1908 0.21238,0.35696 0.33491,0.50163 l 0.28875,0.28816 c 1.24221,1.04705 3.10891,0.4543 3.10891,0.4543 0,0 19.22199,-5.66071 20.83937,-6.12726 1.90607,-0.78926 0.90917,-3.12215 0.28199,-4.53972 -0.90345,-1.73864 -2.91043,-0.96563 -2.91043,-0.96563 l -2.45702,0.88654 c 0,0 0.29541,-0.60661 0.66865,-1.16647 0.37324,-0.55986 0.0933,-1.27529 -0.7154,-1.71074 -0.12636,-0.068 -0.25126,-0.0995 -0.37197,-0.10438 z"
             clip-path="none" /><path
             id="path93"
             style="fill:#936f52;fill-opacity:1;stroke:none;stroke-width:1;stroke-linecap:round;stroke-linejoin:round;paint-order:fill markers stroke"
             d="m 133.87066,127.97968 c -0.65183,-0.0263 -1.18322,0.72657 -1.18322,0.72657 -0.86025,0.99367 -2.23379,3.37475 -2.23379,3.37475 0,0 -10.11163,2.80429 -14.74818,4.09007 -1.96822,0.52739 -1.99074,2.2082 -0.90212,4.29214 0.0997,0.1908 0.21238,0.35696 0.33491,0.50163 l 4.41299,-1.2241 -4.12424,1.51226 c 1.24221,1.04705 3.10891,0.4543 3.10891,0.4543 0,0 19.22199,-5.66071 20.83937,-6.12726 1.46873,-0.42366 1.27004,-2.15552 0.56898,-3.89106 l -3.82697,0.40137 3.53998,-1.05003 c -0.90345,-1.73864 -2.91043,-0.96563 -2.91043,-0.96563 l -2.45702,0.88654 c 0,0 0.29541,-0.60661 0.66865,-1.16647 0.37324,-0.55986 0.0933,-1.27529 -0.7154,-1.71074 -0.12636,-0.068 -0.25126,-0.0995 -0.37197,-0.10438 z m -7.2649,6.46334 -3.75434,1.37641 -4.50414,1.26674 3.5782,-1.69221 z"
             clip-path="none" /></g><g
           id="g96"
           transform="matrix(1.1438395,0,0,0.92305813,160.92658,-41.46653)"
           style="display:inline"><path
             style="display:inline;mix-blend-mode:normal;fill:none;fill-opacity:0;stroke:#ffffff;stroke-width:1.77143;stroke-linecap:round;stroke-linejoin:round;stroke-dasharray:none;stroke-opacity:1;paint-order:fill markers stroke"
             d="m 128.01906,138.00572 c 0,0 2.78792,-4.02238 -4.73102,-8.62424 -7.51894,-4.60187 -9.29307,-10.05594 -0.59138,-15.64635 8.70169,-5.59042 5.02671,-8.93104 5.02671,-8.93104 0,0 7.09652,5.11319 0.7181,10.29455 -6.37843,5.18136 -6.88532,6.44262 -3.92844,9.98776 0,0 -0.42241,-2.62477 3.97068,-5.41998 4.39308,-2.79521 5.28015,-4.26099 4.22412,-6.23809 0,0 5.40688,3.98829 -0.38017,8.72651 -5.78705,4.73822 -4.8155,5.55633 -3.16809,8.48789 1.64741,2.93156 1.52068,4.97684 -1.14051,7.36299 z"
             id="path94"
             clip-path="none"
             transform="matrix(1.4726603,0,0,1.8248981,-106.3772,-141.5546)" /><path
             style="mix-blend-mode:normal;fill:url(#linearGradient98);stroke:none;stroke-width:1;stroke-linecap:round;stroke-linejoin:round;paint-order:fill markers stroke"
             d="m 82.151382,110.29177 c 0,0 4.10566,-7.34042 -6.96718,-15.738358 -11.07284,-8.397938 -13.685531,-18.351052 -0.8709,-28.552997 12.81464,-10.201941 7.40263,-16.298223 7.40263,-16.298223 0,0 10.45077,9.331046 1.05752,18.786503 -9.39325,9.455459 -10.13973,11.757117 -5.78525,18.22664 0,0 -0.62207,-4.789935 5.84746,-9.890906 6.46952,-5.100971 7.77587,-7.775871 6.2207,-11.383875 0,0 7.96249,7.278215 -0.55987,15.924984 -8.52235,8.646768 -7.09159,10.139735 -4.66552,15.489534 2.42607,5.349798 2.23945,9.082218 -1.67959,13.436698 z"
             id="path95" /><path
             id="path96"
             style="fill:url(#linearGradient99);stroke-width:1;stroke-linecap:round;stroke-linejoin:round;paint-order:fill markers stroke"
             d="m 74.313454,66.000633 c -12.814362,10.201879 -10.202024,20.154893 0.870748,28.552779 11.07284,8.397938 6.967533,15.738568 6.967533,15.738568 3.91904,-4.35448 4.105554,-8.0871 1.679484,-13.436898 0,0 -11.096714,-11.385614 -0.995288,-20.030821 -6.469503,5.100964 -5.847705,9.891386 -5.847705,9.891386 0,0 -11.593975,-13.500275 -2.674772,-20.715014 z" /></g></g><path
         d="m 221.1072,26.746614 h 3.83646 v 18.190123 h -3.83646 v -3.615976 q -2.80018,4.123095 -6.94532,4.123095 -3.59393,0 -6.15157,-2.822225 -2.5356,-2.822226 -2.5356,-6.857125 0,-3.814414 2.55765,-6.658688 2.57969,-2.866322 6.04132,-2.866322 2.13872,0 4.05695,1.168577 1.91823,1.168578 2.97657,3.042712 z m 0.50711,9.150183 q 0,-2.491495 -1.78594,-4.255386 -1.78593,-1.785939 -4.27743,-1.785939 -2.42535,0 -4.23334,1.76389 -1.80799,1.763891 -1.80799,4.145144 0,2.57969 1.7639,4.387678 1.76389,1.807988 4.27743,1.807988 2.4915,0 4.27743,-1.78594 1.78594,-1.807988 1.78594,-4.277435 z m 9.67935,-19.579186 h 3.79237 v 14.022931 q 2.4474,-4.101046 7.01146,-4.101046 3.52779,0 6.10748,2.822225 2.60173,2.822225 2.60173,6.702785 0,3.880559 -2.55764,6.790979 -2.53559,2.888371 -5.93108,2.888371 -2.18281,0 -4.14514,-1.168578 -1.96233,-1.168578 -3.08681,-3.175003 v 3.836462 h -3.79237 z m 15.4561,19.446895 q 0,-2.491496 -1.78594,-4.255387 -1.78594,-1.785939 -4.32154,-1.785939 -2.44739,0 -4.25538,1.807988 -1.78594,1.785939 -1.78594,4.233338 0,2.557641 1.78594,4.321532 1.80799,1.741842 4.43177,1.741842 2.42535,0 4.16719,-1.78594 1.7639,-1.785939 1.7639,-4.277434 z m 9.41476,-19.446895 h 3.83646 v 28.619126 h -3.83646 z m 27.5167,20.262694 h -15.52224 q 0.50712,2.800176 2.29306,4.101046 1.80798,1.278821 3.92465,1.278821 3.2632,0 5.46806,-2.711982 l 2.80018,2.116668 q -3.15295,4.078998 -8.44463,4.078998 -4.05694,0 -6.79097,-2.778128 -2.73404,-2.778128 -2.73404,-6.901222 0,-3.858511 2.75608,-6.680736 2.77813,-2.844274 6.76893,-2.844274 3.92466,0 6.72484,2.888371 2.80017,2.866322 2.75608,7.452438 z m -15.12537,-3.06476 h 11.11252 q -1.85209,-3.748268 -5.46807,-3.748268 -3.9467,0 -5.64445,3.748268 z"
         id="text97"
         style="font-size:45.1556px;font-family:'Tw Cen MT';-inkscape-font-specification:'Tw Cen MT';letter-spacing:0px;fill:url(#radialGradient103);stroke-width:2.64583;stroke-linecap:round;stroke-linejoin:round;paint-order:fill markers stroke"
         aria-label="able" /></g></g></svg>
