<?xml version="1.0" encoding="UTF-8" standalone="no"?>
<svg
   width="13"
   height="13"
   fill="none"
   viewBox="0 0 13 13"
   version="1.1"
   id="svg1"
   xml:space="preserve"
   xmlns="http://www.w3.org/2000/svg"
   xmlns:svg="http://www.w3.org/2000/svg"><defs
     id="defs1" /><path
     d="m 9.099325,0 a 1.4625,1.4625 0 0 1 1.4625,1.4625 v 10.075 A 1.4625,1.4625 0 0 1 9.099325,13 h -6.82435 a 1.4625,1.4625 0 0 1 -1.4625,-1.4625 V 1.4625 A 1.4625,1.4625 0 0 1 2.274975,0 Z m 2.11315,8.4513 h 0.4875 a 0.4875,0.4875 0 0 1 0.48295,0.4212 l 0.0046,0.0663 v 0.9737 a 0.4875,0.4875 0 0 1 -0.4212,0.48295 L 11.699975,10.4 h -0.4875 V 8.4513 h 0.4875 z m 0,-2.6 h 0.4875 a 0.4875,0.4875 0 0 1 0.48295,0.4212 l 0.0046,0.0663 v 0.9737 a 0.4875,0.4875 0 0 1 -0.4212,0.48295 L 11.699975,7.8 h -0.4875 V 5.8513 h 0.4875 z m 0,-2.6 h 0.4875 a 0.4875,0.4875 0 0 1 0.48295,0.4212 l 0.0046,0.0663 v 0.9737 a 0.4875,0.4875 0 0 1 -0.4212,0.48295 L 11.699975,5.2 h -0.4875 V 3.2513 h 0.4875 z m -3.4099,-0.97825 h -4.2276 A 0.4875,0.4875 0 0 0 3.092025,2.6949 l -0.00455,0.06565 v 0.9776 c 0,0.247 0.18395,0.45045 0.42185,0.48295 l 0.06565,0.00455 h 4.22695 a 0.4875,0.4875 0 0 0 0.48295,-0.4212 l 0.00455,-0.0663 v -0.9776 a 0.4875,0.4875 0 0 0 -0.4875,-0.4875 z"
     fill="#212121"
     id="path1"
     style="fill:#e0e0e0;fill-opacity:1;stroke-width:0.65" /></svg>
