<?xml version="1.0" encoding="UTF-8" standalone="no"?>
<svg
   width="16"
   height="16"
   version="1.1"
   id="svg1"
   sodipodi:docname="light_portal_2d.svg"
   xml:space="preserve"
   inkscape:version="1.4.3 (0d15f75, 2025-12-25)"
   xmlns:inkscape="http://www.inkscape.org/namespaces/inkscape"
   xmlns:sodipodi="http://sodipodi.sourceforge.net/DTD/sodipodi-0.dtd"
   xmlns="http://www.w3.org/2000/svg"
   xmlns:svg="http://www.w3.org/2000/svg"><defs
     id="defs1" /><sodipodi:namedview
     id="namedview1"
     pagecolor="#505050"
     bordercolor="#ffffff"
     borderopacity="1"
     inkscape:showpageshadow="0"
     inkscape:pageopacity="0"
     inkscape:pagecheckerboard="1"
     inkscape:deskcolor="#505050"
     showguides="true"
     inkscape:zoom="22.627417"
     inkscape:cx="5.2370096"
     inkscape:cy="11.799844"
     inkscape:window-width="1920"
     inkscape:window-height="1009"
     inkscape:window-x="1072"
     inkscape:window-y="421"
     inkscape:window-maximized="1"
     inkscape:current-layer="svg1" /><path
     id="path1"
     d="M 8.0800781,0.99804688 C 2.6171328,0.91029172 0.99237223,8.3948694 6,10.580078 V 12 C 6,10.94906 6.4178638,9.8146997 7.2050781,8.8925781 3.8344366,7.9654785 4.5041829,3.000799 8,3 V 8.1367188 C 8.894533,7.4488151 10.072507,7 11.5,7 11.998089,7 12.451992,7.049699 12.867188,7.1386719 13.595185,4.0334789 11.26905,1.0496486 8.0800781,0.99804688 Z M 6,12 c 0,0 0,0.328205 0,0 z"
     style="fill:#8da5f3;fill-opacity:1"
     sodipodi:nodetypes="ccccccscccc" /><path
     fill="#e0e0e0"
     d="M 11.485,8.261 C 9.837,8.261 7.751,9.517 7,11.941 6.963155,12.060365 6.9617654,12.187861 6.996,12.308 7.721,14.846 9.873,16 11.486,16 c 1.612,0 3.764,-1.154 4.489,-3.692 0.0334,-0.116317 0.0334,-0.239683 0,-0.356 -0.71,-2.443 -2.842,-3.691 -4.49,-3.691 z m 0,1.29 c 3.439999,0 3.439999,5.16 0,5.16 -3.4399985,0 -3.4399985,-5.16 0,-5.16 z m 0,1.29 c -1.7199993,0 -1.7199993,2.58 0,2.58 1.719999,0 1.719999,-2.58 0,-2.58 z"
     id="path1-8"
     sodipodi:nodetypes="sccsccsssssss"
     style="fill:#8da5f3;fill-opacity:1" /><g
     id="path3"
     style="opacity:1" /></svg>
